<svg id="visual" viewBox="0 0 960 540" width="960" height="540" xmlns="http://www.w3.org/2000/svg" xmlns:xlink="http://www.w3.org/1999/xlink" version="1.1"><rect x="0" y="0" width="960" height="540" fill="#F4D06F"></rect><defs><linearGradient id="grad1_0" x1="43.8%" y1="100%" x2="100%" y2="0%"><stop offset="14.444444444444446%" stop-color="#e7c15b" stop-opacity="1"></stop><stop offset="85.55555555555554%" stop-color="#e7c15b" stop-opacity="1"></stop></linearGradient></defs><defs><linearGradient id="grad1_1" x1="43.8%" y1="100%" x2="100%" y2="0%"><stop offset="14.444444444444446%" stop-color="#e7c15b" stop-opacity="1"></stop><stop offset="85.55555555555554%" stop-color="#f4d06f" stop-opacity="1"></stop></linearGradient></defs><defs><linearGradient id="grad2_0" x1="0%" y1="100%" x2="56.3%" y2="0%"><stop offset="14.444444444444446%" stop-color="#e7c15b" stop-opacity="1"></stop><stop offset="85.55555555555554%" stop-color="#e7c15b" stop-opacity="1"></stop></linearGradient></defs><defs><linearGradient id="grad2_1" x1="0%" y1="100%" x2="56.3%" y2="0%"><stop offset="14.444444444444446%" stop-color="#f4d06f" stop-opacity="1"></stop><stop offset="85.55555555555554%" stop-color="#e7c15b" stop-opacity="1"></stop></linearGradient></defs><g transform="translate(960, 540)"><path d="M-243 0C-227.9 -26.1 -212.9 -52.2 -204.2 -84.6C-195.5 -117 -193.1 -155.7 -171.8 -171.8C-150.5 -187.9 -110.2 -181.3 -78.5 -189.4C-46.7 -197.5 -23.3 -220.2 0 -243L0 0Z" fill="#edc865"></path><path d="M-121.5 0C-114 -13 -106.4 -26.1 -102.1 -42.3C-97.7 -58.5 -96.6 -77.9 -85.9 -85.9C-75.3 -94 -55.1 -90.7 -39.2 -94.7C-23.3 -98.7 -11.7 -110.1 0 -121.5L0 0Z" fill="#e7c15b"></path></g><g transform="translate(0, 0)"><path d="M243 0C233.6 27.8 224.1 55.6 215.3 89.2C206.4 122.8 198.1 162.2 171.8 171.8C145.5 181.4 101.3 161.3 69.6 168.1C38 175 19 209 0 243L0 0Z" fill="#edc865"></path><path d="M121.5 0C116.8 13.9 112.1 27.8 107.6 44.6C103.2 61.4 99.1 81.1 85.9 85.9C72.8 90.7 50.6 80.6 34.8 84.1C19 87.5 9.5 104.5 0 121.5L0 0Z" fill="#e7c15b"></path></g></svg>