<svg id="visual" viewBox="0 0 960 540" width="960" height="540" xmlns="http://www.w3.org/2000/svg" xmlns:xlink="http://www.w3.org/1999/xlink" version="1.1"><rect x="0" y="0" width="960" height="540" fill="#F4D06F"></rect><defs><linearGradient id="grad1_0" x1="43.8%" y1="0%" x2="100%" y2="100%"><stop offset="14.444444444444446%" stop-color="#e7c15b" stop-opacity="1"></stop><stop offset="85.55555555555554%" stop-color="#e7c15b" stop-opacity="1"></stop></linearGradient></defs><defs><linearGradient id="grad1_1" x1="43.8%" y1="0%" x2="100%" y2="100%"><stop offset="14.444444444444446%" stop-color="#e7c15b" stop-opacity="1"></stop><stop offset="85.55555555555554%" stop-color="#f4d06f" stop-opacity="1"></stop></linearGradient></defs><defs><linearGradient id="grad2_0" x1="0%" y1="0%" x2="56.3%" y2="100%"><stop offset="14.444444444444446%" stop-color="#e7c15b" stop-opacity="1"></stop><stop offset="85.55555555555554%" stop-color="#e7c15b" stop-opacity="1"></stop></linearGradient></defs><defs><linearGradient id="grad2_1" x1="0%" y1="0%" x2="56.3%" y2="100%"><stop offset="14.444444444444446%" stop-color="#f4d06f" stop-opacity="1"></stop><stop offset="85.55555555555554%" stop-color="#e7c15b" stop-opacity="1"></stop></linearGradient></defs><g transform="translate(960, 0)"><path d="M0 243C-34.3 242.5 -68.6 242 -93 224.5C-117.3 207 -131.7 172.5 -146.4 146.4C-161 120.3 -176 102.6 -192.2 79.6C-208.3 56.6 -225.7 28.3 -243 0L0 0Z" fill="#edc865"></path><path d="M0 121.5C-17.2 121.3 -34.3 121 -46.5 112.3C-58.7 103.5 -65.9 86.2 -73.2 73.2C-80.5 60.1 -88 51.3 -96.1 39.8C-104.2 28.3 -112.8 14.2 -121.5 0L0 0Z" fill="#e7c15b"></path></g><g transform="translate(0, 540)"><path d="M0 -243C33.5 -241.6 67.1 -240.2 93 -224.5C118.9 -208.8 137.2 -178.9 153.4 -153.4C169.7 -128 184 -107.1 198.6 -82.3C213.2 -57.5 228.1 -28.7 243 0L0 0Z" fill="#edc865"></path><path d="M0 -121.5C16.8 -120.8 33.5 -120.1 46.5 -112.3C59.4 -104.4 68.6 -89.4 76.7 -76.7C84.9 -64 92 -53.5 99.3 -41.1C106.6 -28.7 114.1 -14.4 121.5 0L0 0Z" fill="#e7c15b"></path></g></svg>