<svg id="visual" viewBox="0 0 960 540" width="960" height="540" xmlns="http://www.w3.org/2000/svg" xmlns:xlink="http://www.w3.org/1999/xlink" version="1.1"><rect x="0" y="0" width="960" height="540" fill="#F4D06F"></rect><defs><linearGradient id="grad1_0" x1="43.8%" y1="0%" x2="100%" y2="100%"><stop offset="14.444444444444446%" stop-color="#e7c15b" stop-opacity="1"></stop><stop offset="85.55555555555554%" stop-color="#e7c15b" stop-opacity="1"></stop></linearGradient></defs><defs><linearGradient id="grad1_1" x1="43.8%" y1="0%" x2="100%" y2="100%"><stop offset="14.444444444444446%" stop-color="#e7c15b" stop-opacity="1"></stop><stop offset="85.55555555555554%" stop-color="#f4d06f" stop-opacity="1"></stop></linearGradient></defs><defs><linearGradient id="grad2_0" x1="0%" y1="0%" x2="56.3%" y2="100%"><stop offset="14.444444444444446%" stop-color="#e7c15b" stop-opacity="1"></stop><stop offset="85.55555555555554%" stop-color="#e7c15b" stop-opacity="1"></stop></linearGradient></defs><defs><linearGradient id="grad2_1" x1="0%" y1="0%" x2="56.3%" y2="100%"><stop offset="14.444444444444446%" stop-color="#f4d06f" stop-opacity="1"></stop><stop offset="85.55555555555554%" stop-color="#e7c15b" stop-opacity="1"></stop></linearGradient></defs><g transform="translate(960, 0)"><path d="M0 243C-23.7 237.8 -47.4 232.7 -73.9 227.3C-100.3 222 -129.5 216.4 -142.8 196.6C-156.2 176.8 -153.7 142.6 -166.7 121.1C-179.7 99.6 -208.2 90.7 -223.5 72.6C-238.8 54.5 -240.9 27.3 -243 0L0 0Z" fill="#edc865"></path><path d="M0 121.5C-11.9 118.9 -23.7 116.3 -36.9 113.7C-50.2 111 -64.7 108.2 -71.4 98.3C-78.1 88.4 -76.8 71.3 -83.3 60.5C-89.8 49.8 -104.1 45.3 -111.7 36.3C-119.4 27.3 -120.5 13.6 -121.5 0L0 0Z" fill="#e7c15b"></path></g><g transform="translate(0, 540)"><path d="M0 -243C25 -240.3 50 -237.7 75.1 -231.1C100.2 -224.6 125.5 -214.1 142.2 -195.8C159 -177.4 167.3 -151.2 178 -129.3C188.7 -107.5 201.8 -90 213 -69.2C224.3 -48.4 233.6 -24.2 243 0L0 0Z" fill="#edc865"></path><path d="M0 -121.5C12.5 -120.2 25 -118.8 37.5 -115.6C50.1 -112.3 62.7 -107.1 71.1 -97.9C79.5 -88.7 83.6 -75.6 89 -64.7C94.3 -53.7 100.9 -45 106.5 -34.6C112.1 -24.2 116.8 -12.1 121.5 0L0 0Z" fill="#e7c15b"></path></g></svg>